# xmcd
#
# Track frame offsets:
#	150
#	15217
#	30020
#	43797
#	57657
#	72272
#	88029
#	104872
#	118997
#	132310
#	146757
#	162537
#
# Disc length: 2367 seconds
#
# Revision: 0
# Processed by: cddbd v1.5.2PL0 Copyright (c) Steve Scherf et al.
# Submitted via: EasyCDDAExtractor 16.0.8.1
#
DISCID=ad093d0c
DTITLE=Sulino and Marrueiro - Sulino and Marrueiro - Modas de Viola Vol. 1
DYEAR=1900
DGENRE=Sertanejo
TTITLE0=O Peão E O Ricaço
TTITLE1=O Milhagre Do Retrato
TTITLE2=Lar Destruido
TTITLE3=Estranho Retrato
TTITLE4=O Erro Da Professora
TTITLE5=Peão Fantrasma
TTITLE6=Jaãozinho Do Sobrado
TTITLE7=Pai Sem Coração
TTITLE8=Rei Da Invernada
TTITLE9=Punhal Da Saudade
TTITLE10=Juramento Quebrado
TTITLE11=Nora Perversa
EXTD=
EXTT0=
EXTT1=
EXTT2=
EXTT3=
EXTT4=
EXTT5=
EXTT6=
EXTT7=
EXTT8=
EXTT9=
EXTT10=
EXTT11=
PLAYORDER=
